# xmcd
#
# Track frame offsets:
#	150
#	15965
#	34995
#	53610
#	69042
#	88525
#	104850
#	128805
#	153880
#	175512
#	194800
#	213562
#	230967
#	246715
#	263960
#	289655
#
# Disc length: 4087 seconds
#
# Revision: 14
# Processed by: cddbd v1.5.2PL0 Copyright (c) Steve Scherf et al.
# Submitted via: EasyCDDAExtractor 15.3.0.1
#
DISCID=e80ff510
DTITLE=Celine Dion - A New Day Has Come
DYEAR=2002
DGENRE=Pop
TTITLE0=I'm Alive
TTITLE1=Right In Front Of You
TTITLE2=Have You Ever Been In Love
TTITLE3=Rain, Tax (It's Inevitable)
TTITLE4=A New Day Has Come (Radio Remix)
TTITLE5=Ten Days
TTITLE6=Goodbye's (The Saddest Word)
TTITLE7=Prayer
TTITLE8=I Surrender
TTITLE9=At Last
TTITLE10=Sorry For Love
TTITLE11=Aun Existe Amor
TTITLE12=The Greatest Reward
TTITLE13=When The Wrong One Loves You Right
TTITLE14=A New Day Has Come
TTITLE15=Nature Boy
EXTD=YEAR: 2002
EXTT0=
EXTT1=
EXTT2=
EXTT3=
EXTT4=
EXTT5=
EXTT6=
EXTT7=
EXTT8=
EXTT9=
EXTT10=
EXTT11=
EXTT12=
EXTT13=
EXTT14=
EXTT15=
PLAYORDER=
